<svg width="50" height="50" viewBox="0 0 50 50" fill="none" xmlns="http://www.w3.org/2000/svg">
<g clip-path="url(#clip0_109_3)">
<rect width="50" height="50" rx="10" fill="white"/>
<path d="M3.13281 13.125C2.76823 12.9948 2.48177 12.8516 2.27344 12.6953C2.0651 12.513 1.96094 12.1875 1.96094 11.7188C1.96094 10.9115 2.52083 10.5078 3.64062 10.5078H7.82031L14.5781 31.4453L21.1406 10.5078H23.875C24.6042 10.5078 25.0729 10.7161 25.2812 11.1328C25.4896 11.5234 25.5417 11.9661 25.4375 12.4609L16.3359 39.375H12.3516L4.42188 15.8984C4.08333 14.8828 3.83594 14.1927 3.67969 13.8281C3.52344 13.4635 3.34115 13.2292 3.13281 13.125ZM32.0781 15.0781V22.4219H35.5156C36.8438 22.4219 37.8984 22.0964 38.6797 21.4453C39.487 20.7682 39.8906 19.6354 39.8906 18.0469C39.8906 16.6406 39.4349 15.5729 38.5234 14.8438C37.638 14.1146 36.5443 13.75 35.2422 13.75H33.4844C32.5469 13.75 32.0781 14.1927 32.0781 15.0781ZM32.0781 34.6875C32.0781 35.599 32.5599 36.0547 33.5234 36.0547H35.3594C37 36.0547 38.3672 35.651 39.4609 34.8438C40.5807 34.0365 41.1406 32.8255 41.1406 31.2109C41.1406 29.2839 40.6068 27.9036 39.5391 27.0703C38.4974 26.2109 37.1823 25.7812 35.5938 25.7812H32.0781V34.6875ZM36.0234 39.2969H27.2344V15.3125C27.2344 14.5052 27.1562 13.9714 27 13.7109C26.8698 13.4505 26.6875 13.2812 26.4531 13.2031C25.9583 13.0469 25.5807 12.8646 25.3203 12.6562C25.0859 12.4479 24.9688 12.1354 24.9688 11.7188C24.9688 10.9115 25.4115 10.5078 26.2969 10.5078H35.6719C38.5885 10.5078 40.8542 11.1458 42.4688 12.4219C44.1094 13.6719 44.9297 15.4297 44.9297 17.6953C44.9297 19.3099 44.513 20.6901 43.6797 21.8359C42.8724 22.9557 42.1042 23.6198 41.375 23.8281C42.4948 24.0885 43.5755 24.8698 44.6172 26.1719C45.6589 27.4479 46.1797 29.1276 46.1797 31.2109C46.1797 33.6068 45.3464 35.5599 43.6797 37.0703C42.013 38.5547 39.4609 39.2969 36.0234 39.2969Z" fill="black"/>
</g>
<defs>
<clipPath id="clip0_109_3">
<rect width="50" height="50" rx="10" fill="white"/>
</clipPath>
</defs>
</svg>
