<svg width="134" height="88" viewBox="0 0 134 88" fill="none" xmlns="http://www.w3.org/2000/svg">
<path d="M3.89844 8.375C2.80469 7.98437 1.94531 7.55469 1.32031 7.08594C0.695312 6.53906 0.382812 5.5625 0.382812 4.15625C0.382812 1.73438 2.0625 0.523438 5.42188 0.523438H17.9609L38.2344 63.3359L57.9219 0.523438H66.125C68.3125 0.523438 69.7188 1.14844 70.3438 2.39844C70.9688 3.57031 71.125 4.89844 70.8125 6.38281L43.5078 87.125H31.5547L7.76562 16.6953C6.75 13.6484 6.00781 11.5781 5.53906 10.4844C5.07031 9.39062 4.52344 8.6875 3.89844 8.375ZM90.7344 14.2344V36.2656H101.047C105.031 36.2656 108.195 35.2891 110.539 33.3359C112.961 31.3047 114.172 27.9062 114.172 23.1406C114.172 18.9219 112.805 15.7187 110.07 13.5312C107.414 11.3438 104.133 10.25 100.227 10.25H94.9531C92.1406 10.25 90.7344 11.5781 90.7344 14.2344ZM90.7344 73.0625C90.7344 75.7969 92.1797 77.1641 95.0703 77.1641H100.578C105.5 77.1641 109.602 75.9531 112.883 73.5312C116.242 71.1094 117.922 67.4766 117.922 62.6328C117.922 56.8516 116.32 52.7109 113.117 50.2109C109.992 47.6328 106.047 46.3438 101.281 46.3438H90.7344V73.0625ZM102.57 86.8906H76.2031V14.9375C76.2031 12.5156 75.9688 10.9141 75.5 10.1328C75.1094 9.35156 74.5625 8.84375 73.8594 8.60938C72.375 8.14062 71.2422 7.59375 70.4609 6.96875C69.7578 6.34375 69.4062 5.40625 69.4062 4.15625C69.4062 1.73438 70.7344 0.523438 73.3906 0.523438H101.516C110.266 0.523438 117.062 2.4375 121.906 6.26562C126.828 10.0156 129.289 15.2891 129.289 22.0859C129.289 26.9297 128.039 31.0703 125.539 34.5078C123.117 37.8672 120.812 39.8594 118.625 40.4844C121.984 41.2656 125.227 43.6094 128.352 47.5156C131.477 51.3438 133.039 56.3828 133.039 62.6328C133.039 69.8203 130.539 75.6797 125.539 80.2109C120.539 84.6641 112.883 86.8906 102.57 86.8906Z" fill="black"/>
</svg>
